<?xml version="1.0" encoding="utf-8"?>
<!-- Generator: Adobe Illustrator 16.0.4, SVG Export Plug-In . SVG Version: 6.00 Build 0)  -->
<!DOCTYPE svg [
	<!ENTITY ns_flows "http://ns.adobe.com/Flows/1.0/">
	<!ENTITY ns_extend "http://ns.adobe.com/Extensibility/1.0/">
	<!ENTITY ns_ai "http://ns.adobe.com/AdobeIllustrator/10.0/">
	<!ENTITY ns_graphs "http://ns.adobe.com/Graphs/1.0/">
]>
<svg version="1.2" baseProfile="tiny" id="Warstwa_1" xmlns:x="&ns_extend;" xmlns:i="&ns_ai;" xmlns:graph="&ns_graphs;"
	 xmlns="http://www.w3.org/2000/svg" xmlns:xlink="http://www.w3.org/1999/xlink" xmlns:a="http://ns.adobe.com/AdobeSVGViewerExtensions/3.0/"
	 x="0px" y="0px" width="280px" height="80px" viewBox="0 0 280 80" xml:space="preserve">
<g>
	<path fill="#0F0E10" d="M88.024,11.538c-1.234-1.079-2.971-1.535-4.693-1.535L76.351,10v59.336l6.98-0.003
		c1.723,0,3.459-0.455,4.693-1.535c1.23-1.082,1.59-2.504,1.59-4.095v-48.07C89.614,14.042,89.255,12.621,88.024,11.538z"/>
	<g>
		<path fill="#0F0E10" d="M105.954,54.518c1.207,0.282,1.941,0.841,2.084,0.973c1.223,1.121,0.963,1.225,1.301,1.857
			c0.418,0.777,0.984,1.444,1.707,1.997c0.666,0.5,1.457,0.874,2.371,1.124c0.916,0.251,1.873,0.375,2.871,0.375
			c0.666,0,1.389-0.084,2.166-0.25c0.777-0.167,1.498-0.429,2.164-0.791c0.664-0.36,1.219-0.832,1.664-1.414
			c0.443-0.583,0.666-1.291,0.666-2.123c0-0.833-0.25-1.511-0.748-2.039c-0.5-0.526-1.098-0.958-1.791-1.291
			c-0.693-0.332-1.443-0.583-2.246-0.748c-0.805-0.167-1.514-0.333-2.123-0.499c-2.219-0.555-4.508-1.054-6.865-1.499
			c-2.361-0.442-4.525-1.124-6.494-2.04c-1.971-0.915-3.578-2.176-4.828-3.786c-1.248-1.608-1.871-3.884-1.871-6.826
			c0-2.606,0.623-4.757,1.871-6.449c1.25-1.692,2.846-3.039,4.787-4.037c1.943-0.999,4.078-1.706,6.408-2.122
			c2.332-0.417,4.551-0.625,6.66-0.625c2.385,0,4.729,0.208,7.033,0.625c2.301,0.416,4.396,1.138,6.283,2.164
			c1.885,1.027,3.428,2.441,4.619,4.245s1.873,4.242,1.984,7.071h-10.566c-1.582-0.352-1.967-0.834-2.422-1.315
			c-0.844-0.884-0.969-1.933-1.939-2.552c-1.109-0.721-2.607-1.082-4.494-1.082c-0.611,0-1.262,0.028-1.955,0.083
			c-0.695,0.056-1.346,0.195-1.957,0.416c-0.611,0.224-1.123,0.556-1.539,0.999c-0.416,0.444-0.625,1.027-0.625,1.748
			c0,0.999,0.525,1.83,1.582,2.496c1.053,0.666,2.371,1.208,3.953,1.624s3.314,0.791,5.203,1.123
			c1.885,0.333,3.633,0.666,5.242,0.998c2.164,0.445,3.955,1.139,5.369,2.081c1.414,0.945,2.539,1.972,3.373,3.081
			c0.83,1.11,1.414,2.247,1.746,3.412c0.334,1.165,0.5,2.192,0.5,3.079c0,2.887-0.625,5.314-1.873,7.282
			c-1.25,1.971-2.859,3.553-4.828,4.745c-1.969,1.193-4.189,2.054-6.658,2.581c-2.469,0.525-4.926,0.791-7.365,0.791
			c-2.553,0-5.08-0.238-7.576-0.709c-2.496-0.472-4.73-1.302-6.699-2.496c-1.971-1.193-3.58-2.788-4.828-4.786
			s-1.928-4.495-2.039-7.491H105.954z"/>
	</g>
	<g>
		<polygon fill="#5F86C3" points="62.931,47.425 62.931,21.208 46.36,47.425 		"/>
		<path fill="#5F86C3" d="M55.437,10.029l-16.738,0.003c-1.723,0-3.461,0.455-4.695,1.535c-1.23,1.081-1.59,2.502-1.59,4.094v29.534
			L55.437,10.029z"/>
		<path fill="#5F86C3" d="M32.413,59.674v4.059c0,1.591,0.359,3.011,1.59,4.094c1.234,1.079,2.973,1.534,4.695,1.534l24.232,0.004
			v-9.69H32.413z"/>
	</g>
	<g>
		<path fill="#0F0E10" d="M152.825,69.663c-5.514,0-9.801-3.817-9.801-9.355c0-5.313,4.363-9.456,9.801-9.456
			c2.857,0,5.154,1.049,6.814,2.845l-0.766,0.774c-1.838-1.922-3.549-2.57-6.125-2.57c-4.801,0-8.525,3.667-8.525,8.407
			c0,5.04,3.725,8.308,8.602,8.308c3.623,0,6.789-2.345,7.453-5.563h-6.662v-1.022h7.912
			C161.298,66.121,157.571,69.663,152.825,69.663z"/>
		<path fill="#0F0E10" d="M165.515,69.364V51.151h9.418v0.998h-8.27v7.111h7.453v0.996h-7.453v8.109h8.754v0.998H165.515z"/>
		<path fill="#0F0E10" d="M192.981,69.364l-12.098-16.766c0,0,0.051,0.623,0.051,1.348v15.418h-1.148V51.151h1.43l11.994,16.69
			c0,0-0.051-0.624-0.051-1.347V51.151h1.15v18.213H192.981z"/>
		<path fill="#0F0E10" d="M199.419,69.364V51.151h9.418v0.998h-8.27v7.111h7.453v0.996h-7.453v8.109h8.754v0.998H199.419z"/>
		<path fill="#0F0E10" d="M218.31,52.149v17.215h-1.148V52.149h-4.748v-0.998h10.617v0.998H218.31z"/>
		<path fill="#0F0E10" d="M226.862,69.364V51.151h1.148v18.213H226.862z"/>
		<path fill="#0F0E10" d="M246.21,69.364l-6.457-9.007l-6.561,9.007h-1.352l7.248-9.905l-6.023-8.308h1.326l5.361,7.36l5.385-7.36
			h1.25l-5.971,8.308l7.17,9.905H246.21z"/>
	</g>
</g>
</svg>
